<svg width="295" height="40" viewBox="0 0 295 40" fill="none" xmlns="http://www.w3.org/2000/svg">
<path fill-rule="evenodd" clip-rule="evenodd" d="M192.822 22.3021C191.817 21.1998 190.624 20.2795 189.297 19.5826L184.93 17.0645C184.368 16.7372 183.857 16.4224 183.41 16.1203C182.996 15.849 182.611 15.5368 182.261 15.1886C181.95 14.8814 181.695 14.5236 181.508 14.131C181.335 13.7329 181.244 13.305 181.24 12.872C181.209 12.3943 181.295 11.9164 181.491 11.4783C181.686 11.0402 181.986 10.6546 182.363 10.3539C183.241 9.71866 184.315 9.40278 185.402 9.46C187 9.38967 188.562 9.93619 189.757 10.9834C190.358 11.3991 190.854 11.9459 191.206 12.5813C191.558 13.2168 191.757 13.9237 191.787 14.6472H193.064V12.1291C193.057 11.478 192.802 10.8532 192.349 10.3791C191.823 9.84223 191.193 9.41421 190.497 9.12007C189.686 8.73573 188.828 8.45643 187.944 8.28911C186.988 8.10904 186.018 8.01632 185.045 8.01212C182.983 7.90865 180.944 8.46994 179.235 9.61109C178.544 10.1069 177.987 10.7622 177.613 11.5195C177.239 12.2768 177.059 13.113 177.089 13.9547C177.066 15.1471 177.419 16.3171 178.098 17.3038C179.012 18.4442 180.161 19.3799 181.469 20.0485L185.849 22.5665C186.825 23.1151 187.726 23.7836 188.531 24.5558C188.858 24.8888 189.114 25.2835 189.283 25.7161C189.452 26.1487 189.53 26.6105 189.514 27.0738C189.539 27.5664 189.434 28.0568 189.21 28.4978C188.987 28.9389 188.652 29.3157 188.237 29.5919C187.268 30.2029 186.13 30.502 184.981 30.448C183.279 30.5235 181.612 29.9562 180.32 28.8617C179.171 27.8419 178.149 26.2177 177.97 22.768H177V27.8041C177.007 28.4553 177.262 29.08 177.715 29.5541C178.232 30.1169 178.863 30.5671 179.567 30.8761C180.381 31.2507 181.239 31.5255 182.121 31.6945C183.075 31.8807 184.046 31.9735 185.019 31.9715C187.372 32.1426 189.716 31.5405 191.685 30.2592C192.431 29.717 193.031 29.0035 193.434 28.1808C193.837 27.358 194.03 26.4508 193.996 25.5378C194.032 24.3606 193.632 23.2108 192.873 22.3021" fill="#2A2A2A"/>
<path fill-rule="evenodd" clip-rule="evenodd" d="M142.22 8V23.9463L129.952 10.0909C129.401 9.4088 128.683 8.87567 127.865 8.54162C126.81 8.15202 125.687 7.97221 124.561 8.0126H122V9.05805H122.179C122.712 9.04477 123.242 9.13023 123.742 9.30997C124.123 9.43858 124.464 9.66461 124.728 9.96495C124.981 10.2455 125.162 10.5828 125.253 10.9474C125.36 11.3587 125.412 11.7823 125.406 12.207L125.445 28.4808C125.71 29.4943 126.325 30.3852 127.186 31V13.7311L142.361 31H144V8H142.22Z" fill="#2A2A2A"/>
<path fill-rule="evenodd" clip-rule="evenodd" d="M102.522 27.605C102.522 27.605 101.498 30.1198 91.3405 29.2396V27.2403V12.5159C91.3506 11.7962 91.2998 11.077 91.1889 10.3657C91.1386 9.8736 90.9835 9.3978 90.7341 8.96998C90.4914 8.62638 90.1468 8.36696 89.7486 8.2281C89.252 8.06373 88.7303 7.98713 88.2072 8.00176H84V9.04542H84.4169C84.8111 8.98719 85.2138 9.04696 85.5738 9.21713C85.9337 9.3873 86.2347 9.66018 86.4384 10.0011C86.7709 10.7968 86.9261 11.6548 86.8932 12.5159V28.0325C86.8288 28.6564 86.6091 29.2545 86.2539 29.7727C85.8987 30.2908 85.4193 30.7127 84.8591 31C90.8078 30.5021 96.7879 30.5021 102.737 31L104 28.1582C103.621 28.0451 102.85 27.7307 102.547 27.6301" fill="#2A2A2A"/>
<path fill-rule="evenodd" clip-rule="evenodd" d="M172.956 29.8752C172.497 28.16 172.77 8 172.77 8H169V26.9312C169.204 27.983 169.685 28.9327 170.377 29.6448C171.628 31.0517 173.268 31.8872 175 32C174.514 31.9342 174.058 31.695 173.692 31.3149C173.327 30.9348 173.07 30.4322 172.956 29.8752Z" fill="#2A2A2A"/>
<path fill-rule="evenodd" clip-rule="evenodd" d="M62 8V10.1767C64.5648 9.77149 67.1558 9.57379 69.7497 9.58534V26.9612C69.7497 27.9803 72.373 31 73.6727 31H74.1059C74.1059 31 74.2022 9.4721 74.1059 9.4721C76.7526 9.48679 79.3933 9.73512 82 10.2144V8H62Z" fill="#2A2A2A"/>
<path fill-rule="evenodd" clip-rule="evenodd" d="M122.024 28.3115C119.539 24.3439 113.674 10.3934 112.854 8H111.462L103 27.0572L104.342 27.582L105.585 24.843L106.603 22.7057C112.816 22.7825 116.42 27.5692 118.644 29.361C120.71 31.1193 123.32 32.055 126 31.9975C125.64 31.9975 123.987 31.6263 121.974 28.3115M107.063 21.605L110.468 14.0666L115.214 24.3823C112.842 22.6847 110.049 21.7211 107.163 21.605H107.063Z" fill="#2A2A2A"/>
<path fill-rule="evenodd" clip-rule="evenodd" d="M49.5825 22.7059C55.8021 22.7827 59.4094 27.5695 61.636 29.3614C63.7071 31.1148 66.3185 32.0497 69 31.998C68.6393 31.998 66.9973 31.6268 64.9697 28.3119C62.4819 24.3442 56.623 10.3934 55.7896 8H54.3591L46 26.6352C46.2426 27.1958 46.5563 27.7209 46.9329 28.1967L48.5376 24.8434L49.5825 22.7059ZM53.5133 14.0667L58.2526 24.3826C55.8543 22.6668 53.0245 21.7021 50.1049 21.6052L53.5133 14.0667Z" fill="#2A2A2A"/>
<path fill-rule="evenodd" clip-rule="evenodd" d="M146 8V10.1767C148.57 9.76934 151.166 9.57163 153.764 9.58534V26.9612C153.764 27.9803 156.385 31 157.683 31H158.115C158.115 31 158.212 9.4721 158.115 9.4721C160.759 9.48679 163.396 9.73512 166 10.2144V8H146Z" fill="#2A2A2A"/>
<path fill-rule="evenodd" clip-rule="evenodd" d="M58 39.5596C50.3723 37.4795 46.2613 32.3103 41.0111 22.3208C36.7515 14.237 31.9842 2.95202 30.6593 0C28.261 6.13372 25.4861 12.1116 22.3506 17.899C20.6574 18.1213 18.9955 18.5393 17.3975 19.1446C19.7535 18.8381 22.1441 18.9349 24.468 19.431L29.1981 11.2102C30.6593 14.947 33.3339 21.424 35.5628 25.796C28.0342 20.9631 17.6204 17.8118 6.93424 23.6162C19.6759 19.593 28.2818 24.8618 36.4667 31.3762C37.7669 32.3975 41.4197 35.2624 42.2494 35.7855C42.336 35.8852 42.3732 35.7855 42.2494 35.7855L41.2959 35.2375C29.0743 28.038 18.0538 18.5218 0 27.9757C20.2579 20.5022 28.5542 31.1644 41.4073 37.6041C46.3604 40.0952 51.7468 40.444 57.9752 39.5596" fill="#2A2A2A"/>
<path fill-rule="evenodd" clip-rule="evenodd" d="M194 40H195.18L213 0H211.868L194 40Z" fill="#2A2A2A"/>
<path d="M288.497 30.7325C288.806 30.7315 289.114 30.7022 289.417 30.6447C289.739 30.5937 290.05 30.4877 290.337 30.3313C290.611 30.1918 290.849 29.9901 291.033 29.7422C291.227 29.4783 291.323 29.1548 291.306 28.827C291.305 28.6206 291.254 28.4176 291.156 28.236C291.059 28.0545 290.918 27.9001 290.747 27.7866C290.322 27.4791 289.868 27.2146 289.392 26.9968L288.149 26.4452C287.44 26.1501 286.791 25.7251 286.235 25.1916C286.007 24.9724 285.828 24.7074 285.708 24.4137C285.588 24.12 285.53 23.8042 285.539 23.4868C285.526 22.8704 285.695 22.2641 286.024 21.7443C286.345 21.2417 286.768 20.8143 287.267 20.4907C287.798 20.1662 288.377 19.9293 288.982 19.7887C289.601 19.6396 290.235 19.5639 290.871 19.563C291.219 19.563 291.63 19.563 292.114 19.563C292.573 19.5984 293.028 19.6824 293.469 19.8138C293.873 19.9408 294.243 20.1595 294.551 20.4531C294.702 20.6099 294.821 20.7965 294.898 21.0015C294.975 21.2064 295.009 21.4251 294.998 21.644C294.996 21.9417 294.975 22.2389 294.936 22.534C294.936 22.8474 294.837 23.1734 294.774 23.5244H293.904V23.4492C293.924 22.7314 293.7 22.0284 293.27 21.456C293.008 21.1631 292.682 20.9366 292.317 20.7951C291.952 20.6535 291.559 20.6007 291.17 20.6411C290.884 20.6417 290.6 20.6796 290.324 20.754C290.044 20.8282 289.779 20.9512 289.541 21.1175C289.31 21.2835 289.112 21.4919 288.957 21.7318C288.802 22.0017 288.725 22.3099 288.733 22.6218C288.727 22.7935 288.758 22.9647 288.825 23.1229C288.891 23.2811 288.992 23.4225 289.119 23.5369C289.436 23.8228 289.803 24.0479 290.2 24.2013L291.592 24.8281C292.39 25.1775 293.128 25.6513 293.78 26.2321C294.018 26.4503 294.207 26.7178 294.334 27.0163C294.461 27.3149 294.522 27.6375 294.513 27.9621C294.533 28.6062 294.346 29.2395 293.979 29.7672C293.623 30.2798 293.161 30.7076 292.624 31.0208C292.054 31.3541 291.432 31.5872 290.784 31.7103C290.131 31.8535 289.464 31.925 288.796 31.9234C288.448 31.9234 288.037 31.9234 287.553 31.9234C287.092 31.9004 286.636 31.8161 286.198 31.6727C285.789 31.5562 285.417 31.3361 285.116 31.0334C284.964 30.877 284.845 30.6904 284.768 30.4854C284.691 30.2804 284.657 30.0614 284.669 29.8424C284.672 29.5448 284.693 29.2476 284.731 28.9524C284.731 28.6515 284.831 28.3131 284.893 27.9621H285.763V28.0373C285.739 28.7556 285.963 29.46 286.397 30.0305C286.659 30.3234 286.985 30.5498 287.35 30.6914C287.715 30.833 288.108 30.8857 288.497 30.8453M283.898 22.7472C283.922 23.3941 283.748 24.0328 283.401 24.5774C283.068 25.091 282.621 25.5201 282.096 25.831C281.535 26.1642 280.921 26.3975 280.281 26.5204C279.624 26.665 278.953 26.7364 278.28 26.7336H275.67C275.578 27.196 275.528 27.666 275.521 28.1376C275.465 28.8713 275.672 29.6009 276.105 30.1934C276.301 30.4179 276.545 30.5953 276.818 30.7124C277.091 30.8295 277.387 30.8835 277.683 30.8704C278.46 30.8928 279.225 30.6835 279.883 30.2687C280.511 29.8501 281.083 29.3531 281.586 28.7894L282.258 29.3661C282.006 29.6784 281.736 29.9756 281.45 30.2561C281.124 30.583 280.761 30.8692 280.368 31.1086C279.923 31.3859 279.442 31.6009 278.939 31.7479C278.347 31.9275 277.73 32.0121 277.112 31.9986C276.42 32.0134 275.732 31.8942 275.086 31.6476C274.513 31.4409 273.994 31.1088 273.564 30.6753C273.134 30.2418 272.805 29.7176 272.6 29.1404C272.381 28.5166 272.271 27.8591 272.276 27.1974C272.276 26.2524 272.44 25.3146 272.761 24.427C273.075 23.5556 273.542 22.7487 274.141 22.0451C274.751 21.2831 275.513 20.6594 276.378 20.2149C277.273 19.7804 278.256 19.5616 279.25 19.5756C280.447 19.5076 281.639 19.7906 282.68 20.3904C283.06 20.6246 283.372 20.955 283.586 21.3486C283.799 21.7423 283.907 22.1856 283.898 22.6343V22.7472ZM278.479 25.5803C278.795 25.5875 279.105 25.4907 279.361 25.3045C279.626 25.1213 279.846 24.8816 280.008 24.6025C280.19 24.3127 280.324 23.9952 280.406 23.6623C280.494 23.331 280.54 22.9898 280.542 22.6469C280.564 22.3955 280.535 22.1423 280.455 21.903C280.376 21.6636 280.249 21.4432 280.082 21.2554C279.809 20.9785 279.438 20.8209 279.051 20.8166C278.706 20.8198 278.366 20.9012 278.056 21.0548C277.705 21.2503 277.403 21.5248 277.174 21.8571C276.861 22.3099 276.61 22.8033 276.428 23.3238C276.171 24.0564 275.984 24.812 275.869 25.5803H278.479ZM269.007 19.9391H271.742L271.543 21.0674H268.809C268.572 22.3209 268.386 23.4868 268.224 24.4019C268.063 25.317 267.938 26.0942 267.827 26.6959C267.715 27.2977 267.64 27.7991 267.578 28.1501C267.516 28.5011 267.479 28.7894 267.454 28.9775C267.429 29.1655 267.454 29.3034 267.454 29.3786C267.448 29.4412 267.448 29.5041 267.454 29.5667C267.41 29.9242 267.508 30.2847 267.727 30.5695C267.826 30.6641 267.944 30.7373 268.072 30.7847C268.2 30.8321 268.337 30.8528 268.473 30.8453C268.737 30.8491 269.001 30.8153 269.256 30.745C269.483 30.6928 269.703 30.6172 269.915 30.5194C270.131 30.4196 270.339 30.3022 270.536 30.1684L270.76 30.8704C270.492 31.087 270.2 31.272 269.89 31.422C269.55 31.5801 269.196 31.706 268.833 31.798C268.351 31.9264 267.853 31.9854 267.354 31.9735C266.542 32.0291 265.738 31.784 265.092 31.2841C264.814 31.0266 264.599 30.7089 264.461 30.3549C264.323 30.0009 264.267 29.6199 264.297 29.2407C264.291 29.1823 264.291 29.1236 264.297 29.0652C264.297 29.0025 264.297 28.8772 264.297 28.6891L264.408 27.8994C264.408 27.5609 264.533 27.0971 264.632 26.4954C264.732 25.8937 264.856 25.1666 265.017 24.2891C265.179 23.4116 265.365 22.346 265.577 21.0674H264.085L264.284 19.9391H265.776L266.173 17.6827L267.69 16.1784H269.679L269.007 19.9391ZM256.279 19.6884C256.703 19.6777 257.126 19.7501 257.522 19.9015C257.809 20.0265 258.076 20.1911 258.318 20.3904C258.545 20.5822 258.738 20.8111 258.89 21.0674H259.014L260.083 19.9391H262.196L260.58 29.2157L260.157 31.7228H258.044L257.348 30.5946H257.224C257.008 30.8424 256.762 31.0615 256.491 31.2465C256.192 31.4518 255.865 31.6123 255.521 31.7228C255.097 31.8651 254.651 31.933 254.204 31.9234C253.544 31.9423 252.888 31.8228 252.277 31.5724C251.763 31.362 251.304 31.0361 250.935 30.6197C250.568 30.2081 250.297 29.7201 250.139 29.1906C249.961 28.6145 249.873 28.0139 249.878 27.4105C249.888 26.4992 250.034 25.5947 250.313 24.7278C250.588 23.8291 251.008 22.9821 251.556 22.2206C252.1 21.4708 252.79 20.8397 253.582 20.3653C254.395 19.8637 255.326 19.591 256.279 19.5756V19.6884ZM256.578 20.8166C256.158 20.8135 255.75 20.9551 255.422 21.2178C255.067 21.506 254.764 21.8538 254.527 22.2457C254.253 22.6948 254.032 23.1743 253.868 23.6748C253.684 24.2036 253.535 24.7437 253.42 25.2919C253.309 25.8435 253.222 26.3575 253.172 26.8464C253.122 27.3353 253.097 27.7615 253.097 28.1C253.072 28.7786 253.208 29.4535 253.495 30.0681C253.618 30.3158 253.811 30.521 254.05 30.6572C254.29 30.7934 254.564 30.8546 254.837 30.8328C255.193 30.844 255.546 30.7573 255.857 30.5821C256.14 30.4261 256.406 30.2413 256.652 30.0305C256.926 29.7929 257.16 29.5137 257.348 29.2031L258.591 22.4338C258.498 22.1433 258.355 21.8718 258.169 21.6315C258.001 21.4128 257.799 21.2224 257.572 21.0674C257.291 20.8362 256.94 20.7081 256.578 20.7038V20.8166ZM246.51 19.9391H249.244L249.045 21.0674H246.311C246.074 22.3209 245.888 23.4868 245.726 24.4019C245.565 25.317 245.441 26.0942 245.329 26.6959C245.217 27.2977 245.13 27.7991 245.08 28.1501C245.03 28.5011 244.981 28.7894 244.956 28.9775C244.931 29.1655 244.956 29.3034 244.956 29.3786C244.95 29.4412 244.95 29.5041 244.956 29.5667C244.912 29.9242 245.011 30.2847 245.229 30.5695C245.329 30.6641 245.446 30.7373 245.574 30.7847C245.702 30.8321 245.839 30.8528 245.975 30.8453C246.239 30.8491 246.503 30.8153 246.758 30.745C246.985 30.6928 247.206 30.6172 247.417 30.5194C247.633 30.4196 247.841 30.3022 248.038 30.1684L248.262 30.8704C247.994 31.087 247.702 31.272 247.392 31.422C247.052 31.5801 246.698 31.706 246.335 31.798C245.853 31.9264 245.355 31.9854 244.856 31.9735C244.044 32.0291 243.24 31.784 242.594 31.2841C242.317 31.0266 242.101 30.7089 241.963 30.3549C241.825 30.0009 241.769 29.6199 241.799 29.2407C241.793 29.1823 241.793 29.1236 241.799 29.0652C241.799 29.0025 241.799 28.8772 241.799 28.6891L241.91 27.8994C241.91 27.5609 242.035 27.0971 242.134 26.4954C242.234 25.8937 242.358 25.1666 242.52 24.2891C242.681 23.4116 242.868 22.346 243.079 21.0674H241.575L241.774 19.9391H243.265L243.663 17.6827L245.18 16.1784H247.168L246.51 19.9391ZM232.837 30.8453C233.145 30.8444 233.453 30.815 233.757 30.7576C234.079 30.7065 234.39 30.6005 234.676 30.4442C234.95 30.3046 235.189 30.1029 235.372 29.855C235.566 29.5911 235.663 29.2676 235.646 28.9399C235.645 28.7334 235.593 28.5304 235.496 28.3489C235.398 28.1673 235.258 28.0129 235.087 27.8994C234.66 27.5946 234.206 27.3302 233.732 27.1096L232.489 26.5581C231.779 26.2629 231.13 25.8379 230.575 25.3045C230.347 25.0853 230.167 24.8202 230.047 24.5265C229.927 24.2329 229.87 23.9171 229.878 23.5996C229.866 22.9832 230.035 22.3769 230.363 21.8571C230.684 21.3546 231.108 20.9271 231.606 20.6035C232.137 20.2791 232.716 20.0421 233.322 19.9015C233.94 19.7524 234.575 19.6767 235.211 19.6759C235.559 19.6759 235.969 19.6759 236.454 19.6759C236.913 19.7123 237.367 19.7963 237.809 19.9266C238.213 20.0536 238.583 20.2723 238.89 20.5659C239.042 20.7227 239.16 20.9094 239.237 21.1143C239.314 21.3192 239.348 21.5379 239.338 21.7568C239.356 22.0532 239.356 22.3505 239.338 22.6469C239.338 22.9603 239.238 23.2862 239.176 23.6372H238.306V23.562C238.325 22.8442 238.102 22.1412 237.672 21.5688C237.41 21.2759 237.083 21.0495 236.718 20.9079C236.353 20.7663 235.96 20.7136 235.571 20.754C235.286 20.7545 235.002 20.7924 234.726 20.8668C234.446 20.941 234.181 21.0641 233.943 21.2303C233.712 21.3963 233.514 21.6047 233.359 21.8446C233.204 22.1145 233.126 22.4227 233.135 22.7346C233.128 22.9064 233.16 23.0775 233.226 23.2357C233.293 23.3939 233.393 23.5353 233.52 23.6497C233.838 23.9356 234.204 24.1607 234.602 24.3141L235.994 24.9409C236.76 25.2498 237.477 25.6723 238.119 26.1945C238.358 26.4127 238.547 26.6802 238.673 26.9787C238.8 27.2773 238.861 27.5999 238.853 27.9245C238.873 28.5686 238.685 29.2019 238.318 29.7296C237.963 30.2422 237.5 30.67 236.963 30.9832C236.393 31.3164 235.771 31.5496 235.124 31.6727C234.47 31.8159 233.804 31.8874 233.135 31.8858C232.787 31.8858 232.377 31.8858 231.892 31.8858C231.431 31.8628 230.976 31.7785 230.537 31.6351C230.129 31.5186 229.756 31.2985 229.456 30.9957C229.303 30.8394 229.185 30.6528 229.108 30.4478C229.031 30.2428 228.997 30.0238 229.008 29.8048C228.991 29.5084 228.991 29.2112 229.008 28.9148C229.008 28.6139 229.095 28.2755 229.17 27.9245H230.04V27.9997C230.017 28.718 230.241 29.4223 230.674 29.9929C230.953 30.2872 231.3 30.5084 231.683 30.6373C232.067 30.7661 232.475 30.7988 232.874 30.7325L232.837 30.8453ZM226.771 15.1755C227.027 15.1462 227.287 15.1689 227.535 15.242C227.782 15.3152 228.013 15.4375 228.213 15.6017C228.461 15.885 228.594 16.2519 228.586 16.6297C228.591 16.688 228.591 16.7468 228.586 16.8052C228.586 16.8804 228.586 16.9932 228.586 17.1687C228.586 17.3442 228.511 17.6075 228.461 17.9459L228.225 19.3123H227.48C227.527 19.0391 227.552 18.7624 227.554 18.485C227.579 18.1723 227.53 17.8581 227.411 17.5683C227.293 17.2784 227.107 17.0212 226.87 16.8177C226.282 16.4413 225.59 16.2614 224.894 16.3037H220.892L219.798 22.5717H226.261L226.063 23.6999H219.599L218.356 30.5946H222.607C223.476 30.6213 224.335 30.4089 225.093 29.9803C225.946 29.4211 226.64 28.6478 227.107 27.7364L227.728 27.9871L226.659 29.855C226.418 30.3213 226.103 30.7447 225.727 31.1086C225.296 31.4586 224.749 31.6291 224.198 31.5849H215L216.007 25.7808C216.28 24.2013 216.504 22.885 216.69 21.832C216.877 20.779 217.014 19.9642 217.113 19.3249C217.213 18.6855 217.287 18.2844 217.337 17.971C217.387 17.6576 217.411 17.457 217.424 17.3567C217.436 17.2565 217.424 17.1812 217.424 17.1311C217.44 16.7666 217.33 16.4078 217.113 16.1157C216.965 15.9796 216.789 15.8768 216.599 15.8141C216.408 15.7515 216.206 15.7303 216.007 15.7522H215.758L215.883 15L226.771 15.1755Z" fill="#2A2A2A"/>
</svg>
